<?xml version="1.0" encoding="utf-8"?>
<!-- Generator: Adobe Illustrator 24.1.1, SVG Export Plug-In . SVG Version: 6.00 Build 0)  -->
<svg version="1.1" id="svg2" xmlns:svg="http://www.w3.org/2000/svg"
	 xmlns="http://www.w3.org/2000/svg" xmlns:xlink="http://www.w3.org/1999/xlink" x="0px" y="0px" viewBox="0 0 1264 816"
	 style="enable-background:new 0 0 1264 816;" xml:space="preserve">
<style type="text/css">
	.st0{fill:none;}
	.st1{fill:#FBFA19;}
</style>
<rect id="rect3672" class="st0" width="1264" height="816"/>
<path id="path2832" class="st1" d="M64,656v51h1136v-51H64z"/>
<path id="path3606" class="st1" d="M105,415l68,213h73l26.5-81.5L298,628h74l66-213h-79l-21.5,75.5L316,415h-83l-21.5,75.5L190,415
	H105z"/>
<path id="path3608" class="st1" d="M463,415l-66,213h81l10-31h74l10,31h81l-67-213H463z M526,478l19,65h-39L526,478z"/>
<path id="path3610" class="st1" d="M993,414c-23,0-60,21-60,71c3,15,8,28,19,39l23,24v4H857c-2-2-5-3-6-6c20-12,41-27,41-58v-9
	c1-32-35-65-64-64H666v213h86v-60h2l47,47c9,8,21,11,33,13h182c24,0,59-27,59-59v-19c-1-11-6-23-15-33l-30-30v-4h129v-69H993z
	 M753,474h50c6,3,10,7,11,13v5c-2,5-4,10-13,13h-48V474z"/>
<path id="path3621" class="st1" d="M173,177c-68-1-107,49-107.5,105.5C65,341,105,388,173,388l102.9-0.2L276,326
	c-26.8,0-53.5,0-80.3,0c-24.5,0-43.7-20.7-43.7-45c0-21.3,16.6-38,37-42h87v-62C241.7,177.6,207.3,176.3,173,177z"/>
<path id="path3655" class="st1" d="M294,177h77v149h93v62H294V177z"/>
<path id="path3659-7" class="st1" d="M580,176c-71.3,8.1-102.6,49.6-108,90c-2,10-2,30,0,42.2c18.6,63,62.2,77,113,82.8
	c11.3,1.2,23.1,0.8,35,0c74.4-8.1,100.9-38.2,112-89.8c1.4-9.8,2-20.4,0-36.8c-7.5-52.8-54.7-84.3-110-87.4
	C611,175.5,595.6,174.8,580,176L580,176z M590,238c8.5-1,16.5-1,24,0c18,3,34,19,34,38c0.5,7.3,0.1,11.3,0,16c-5,22-10,35-35,39
	c-7.7,0.6-15.3,0.8-23,0c-15-2-28-7-34-36c-0.5-5.6-1.1-10.3,0-22C559,257,566,243,590,238z"/>
<path id="path2834" class="st1" d="M748,177h12c46.3,5,90.2,22,127,72h2v-72h76v211h-76c-11-36-33-61-61-75h-3v75h-77V177z"/>
<path id="path2836" class="st1" d="M985,388V177h215v62h-138v17h104v53h-104v17h138v62H985z"/>
<path id="path2838" class="st1" d="M64,149h424V98H64V149z"/>
<path id="path2840" class="st1" d="M1200,149l-0.1-51H747v51H1200L1200,149z"/>
<path id="path2842" class="st1" d="M504,98v15h26v36h24v-36h24v36h25v-19h22v19h25V98h-25v18h-22V98H504z"/>
<path id="path2844" class="st1" d="M660,98v51h71v-15h-47v-5h37v-11h-37v-5h47V98H660z"/>
<path id="path2846" class="st1" d="M141,3c-11,0-21,8-21,18v9c1.1,3.8,2,7,4,10c2.8,4.2,9,9,9,9v3H48c-0.6,0.1-2-0.1-3,0
	c-4.5,0.7-7.4,1.4-13,4C15,64,7.1,79.5,6,90v631c4,22,22.8,33,26,34c3.6,1.2,8,3,11,3h768l17,53h26l9-27l9,27h26l24-79h-30l-5,17h-2
	l-6-17h-32l-5.5,19.5L836,732H53c-7-2-14-7-18-18V99c0-1.1,0.5-2.1,1-3c3.7-6.4,7.5-10.9,15-14c0.7-0.3,2-1,3-1h98c6,0,19-9,19-19
	V50c-1-6-3-7-6-11l-9.5-11H190v53h29V28h33V3H141z M141,6c35.3,0,72.7,0,107,0v18c-10.6,0.5-23.2-0.7-33,0v52h-21l1-52h-42
	c-2,0-3,1-3,2c0,2,1,4,2,5l11,12c3,4,4,6,4,10v7c0,6-12,16-15,16c0,0-65,1-97,1c-1,0-6.3,0.7-7,1c-7.5,3.1-12.3,8.6-16,15
	c-0.5,0.9-2,5.9-2,7c0,199,1,615,1,615c0,11,14,21,21,21h781l9,30l8-29h27l9,29l9-29h21l-21,70h-20l-12-38l-12,38h-20l-16-53H44
	c-17.7-2.7-30.3-18.2-34-35V90c0-9,18-34,38-34h87c3,0,4-1,4-5c-3.1-6.4-14.7-12.4-15-20V21C124,15,134,6,141,6z"/>
<path id="path2925" class="st1" d="M262,3l-23.5,78H268l5-12h24l6,12h28L307,3H262z M267,6h35l24,71h-20l-5-11h-31l-5,11h-21L267,6z
	 M274,52h23l-11.5-34.5L274,52z M285.5,31l5.5,17h-11L285.5,31z"/>
<path id="path2925-7" class="st1" d="M908.5,811H938l5-12h24l6,12h28l-24.3-79h-44.3L908.5,811L908.5,811z M937,736h35l24,71h-20
	l-5-11h-31l-5,11h-21L937,736L937,736z M944,782h23l-11.5-34.5L944,782z M955.5,761l5.5,17h-11L955.5,761z"/>
<path id="path2848" class="st1" d="M334,2v79h31V60h2l16,16c2,2,5,4,8,4h819c12,3,17,12,20,20v612c0,8-13,20-21,20h-85
	c-10,0-22,9-22,19v11c2,9,8,14,13,19v1h-42l-0.1-2.2c6.1-2.8,12.1-7.8,13.1-17.8v-9c-2.8-10.6-10.8-19.2-26.1-21H1005v79h32v-20h2
	l14,14c0,1,4,5,9,5h72c8,0,18-9,19-19v-10c-2-10-9-15-15-21v-2h82c14,0,38-16,38-38V93c-1-25-21-40-41-41H402v-2c5-4,13-9,13-18v-6
	c0-15-15-24-26-24H334z M338,6h49c14,0,23,10,23,20v5c-1,11-11,16-14,19l6,6h817c15,0,35,20,35,37v626c0,18-26,35-35,35h-83
	c-3,0-3,3-3,6c0,1,11,10,11,11c1,0,5,10,5,11v9c0,4-9,15-15,15h-70l-8-3l-21-21h-2v25h-24v-71h51c10,0,21,11,21,21v6
	c0,5-13,17-15,17c0,5,1,6,5,6h47c2,0,3-3,3-5c-8-7-15-18-15-21v-8c0-6,12-16,18-16h90c4,0,20-12,20-20V99c0-10-12-22-22-22l-823-1
	l-24-24h-3v25h-24V6z"/>
<path id="path2853" class="st1" d="M361,21v17h23c4,0,6-4,6-8v-1c0-4-3-8-6-8H361z M365,25h16.6c2.2,0,4.3,2.1,4.3,4.3v0.5
	c0,2.1-1.5,4.3-4.3,4.3H365V25z"/>
<path id="path2853-7" class="st1" d="M1032,751v17h23c4,0,6-4,6-8v-1c0-4-3-8-6-8H1032z M1036,755h16.6c2.2,0,4.3,2.1,4.3,4.3v0.5
	c0,2.1-1.4,4.3-4.3,4.3H1036V755z"/>
</svg>
